<svg width="1588" height="612" viewBox="0 0 1588 612" fill="none" xmlns="http://www.w3.org/2000/svg">
<path d="M113.47 262.087C58.6569 262.087 14.9787 294.946 13.1463 296.345L-7.89382e-06 306.38L13.1463 316.415C14.9787 317.815 58.6568 350.673 113.471 350.673C159.966 350.673 198.443 327.035 210.171 319.005L267.11 319.005C253.624 328.852 239.456 341.949 228.183 358.82C197.73 404.397 200.784 458.969 200.93 461.27L201.97 477.776L217.617 472.42C219.797 471.674 271.385 453.612 301.839 408.036C323.565 375.519 328.235 338.43 329.075 319.005L410.187 319.005C396.701 328.853 382.533 341.95 371.26 358.821C340.808 404.398 343.862 458.97 344.007 461.27L345.047 477.777L360.694 472.421C362.875 471.674 414.462 453.613 444.916 408.037C466.642 375.52 471.312 338.431 472.153 319.006L596.77 319.005L596.77 293.756L472.154 293.756C471.313 274.331 466.644 237.242 444.917 204.725C439.334 196.368 433.043 188.94 426.473 182.371C397.212 153.11 362.477 140.951 360.696 140.341L345.048 134.985L344.009 151.491C343.864 153.792 340.809 208.364 371.261 253.94C382.535 270.811 396.704 283.908 410.191 293.757L329.076 293.757C328.236 274.332 323.567 237.242 301.84 204.726C296.256 196.369 289.965 188.941 283.396 182.371C254.135 153.11 219.4 140.951 217.619 140.341L201.971 134.986L200.931 151.491C200.786 153.792 197.731 208.364 228.183 253.94C239.457 270.811 253.626 283.908 267.113 293.757L210.174 293.757C198.443 285.725 159.966 262.087 113.47 262.087Z" fill="#F1B38B"/>
<path d="M1473.88 260.404C1528.69 260.404 1572.37 293.263 1574.2 294.662L1587.35 304.697L1574.2 314.732C1572.37 316.131 1528.69 348.99 1473.88 348.989C1427.38 348.989 1388.91 325.351 1377.18 317.321L1320.24 317.321C1333.73 327.169 1347.89 340.266 1359.17 357.137C1389.62 402.714 1386.57 457.286 1386.42 459.586L1385.38 476.093L1369.73 470.737C1367.55 469.99 1315.97 451.929 1285.51 406.353C1263.79 373.836 1259.12 336.747 1258.28 317.322L1177.16 317.322C1190.65 327.17 1204.82 340.267 1216.09 357.137C1246.54 402.714 1243.49 457.286 1243.34 459.587L1242.3 476.093L1226.66 470.737C1224.48 469.991 1172.89 451.93 1142.43 406.354C1120.71 373.836 1116.04 336.748 1115.2 317.323L990.581 317.321L990.581 292.073L1115.2 292.073C1116.04 272.648 1120.71 235.558 1142.43 203.042C1148.02 194.685 1154.31 187.257 1160.88 180.687C1190.14 151.426 1224.87 139.267 1226.65 138.657L1242.3 133.302L1243.34 149.808C1243.49 152.109 1246.54 206.681 1216.09 252.257C1204.82 269.128 1190.65 282.225 1177.16 292.073L1258.27 292.073C1259.11 272.648 1263.78 235.559 1285.51 203.042C1291.09 194.685 1297.39 187.258 1303.95 180.688C1333.22 151.427 1367.95 139.268 1369.73 138.658L1385.38 133.302L1386.42 149.808C1386.56 152.109 1389.62 206.681 1359.17 252.257C1347.89 269.128 1333.72 282.224 1320.24 292.073L1377.18 292.073C1388.91 284.042 1427.38 260.403 1473.88 260.404Z" fill="#F1B38B"/>
<path d="M839.8 274L919.9 193.9C925.5 188.2 932.6 186.8 939.3 195.1C958.7 220.4 970.8 250.3 975.1 281.8C976.2 289.2 969.3 296.2 962.3 296.2H848.7C835.5 296.2 830.9 282.2 839.8 274Z" fill="#F1B38B"/>
<path d="M748 337.8L667.9 417.9C662.3 423.6 655.2 425 648.5 416.7C629.1 391.4 617 361.5 612.7 330C611.6 322.6 618.5 315.6 625.5 315.6H739C752.3 315.6 756.9 329.6 748 337.8Z" fill="#F1B38B"/>
<path d="M839.8 337.8L919.9 417.9C925.5 423.6 932.6 425 939.3 416.7C958.7 391.4 970.8 361.5 975.1 330C976.2 322.6 969.3 315.6 962.3 315.6H848.7C835.5 315.6 830.9 329.6 839.8 337.8Z" fill="#F1B38B"/>
<path d="M748 274L668 193.9C662.4 188.2 655.3 186.8 648.6 195.1C629.2 220.4 617.1 250.3 612.8 281.8C611.7 289.2 618.6 296.2 625.6 296.2H739.1C752.3 296.2 756.9 282.2 748 274Z" fill="#F1B38B"/>
<path d="M762 260L681.9 179.9C676.2 174.3 674.8 167.2 683.1 160.5C708.4 141.1 738.3 129 769.8 124.7C777.2 123.6 784.2 130.5 784.2 137.5V251C784.2 264.3 770.2 268.9 762 260Z" fill="#F1B38B"/>
<path d="M825.8 351.7L905.9 431.8C911.6 437.4 913 444.5 904.7 451.2C879.4 470.6 849.5 482.7 818 487C810.6 488.1 803.6 481.2 803.6 474.2V360.7C803.6 347.5 817.6 342.9 825.8 351.7Z" fill="#F1B38B"/>
<path d="M825.8 260L905.9 179.9C911.6 174.3 913 167.2 904.7 160.5C879.4 141.1 849.5 129 818 124.7C810.6 123.6 803.6 130.5 803.6 137.5V251C803.6 264.3 817.6 268.9 825.8 260Z" fill="#F1B38B"/>
<path d="M762 351.7L681.9 431.8C676.2 437.4 674.8 444.5 683.1 451.2C708.4 470.6 738.3 482.7 769.8 487C777.2 488.1 784.2 481.2 784.2 474.2V360.7C784.2 347.5 770.2 342.9 762 351.7Z" fill="#F1B38B"/>
<path d="M825.8 305.9C818.5 299.5 816.5 287.2 816.5 283.4C807.9 283.4 799.8 279.9 794 274.1L793.6 274.5C787.8 279.9 779.6 283.4 771.4 283.4C772.2 292.8 765.2 302.8 762.1 305.9C764.8 308.6 771.6 315.6 771.4 328.4C780 328.4 788.1 331.9 793.9 337.7C799.7 331.9 807.5 328.4 816.4 328.4C816.4 324.2 819.2 312 825.8 305.9Z" fill="#F1B38B"/>
<path d="M793.9 61C658.6 61 549 170.6 549 305.9C549 441.2 658.6 550.8 793.9 550.8C929.2 550.8 1038.8 441.2 1038.8 305.9C1038.8 170.6 929.2 61 793.9 61ZM994.9 332.7C990.2 367.7 976.6 400.7 955.2 428.7C949 436.9 939.6 441.5 929.5 441.5C929.6 450.9 924.1 461.7 916.7 467.2C888.7 488.6 855.7 502.2 820.7 506.9C810.7 508.8 799.7 503.8 793.9 498C787.7 503.8 777.4 509.2 767.1 506.9C732.1 502.2 699.1 488.6 671.1 467.2C663.7 461.4 658 450.6 658.3 441.5C648.2 441.5 638.9 436.8 632.6 428.7C611.2 400.7 597.6 367.7 592.9 332.7C591.7 323.4 595 312.6 601.8 305.9C595.6 300.7 591.7 288.4 592.9 279.1C597.6 244.1 611.2 211.1 632.6 183.1C638.8 174.9 648.2 170.3 658.3 170.3C657.8 162 663.7 150.1 671.1 144.6C699.1 123.2 732.1 109.6 767.1 104.9C776.8 102.9 788.1 108 793.9 113.8C799.7 108 810.5 102.9 820.7 104.9C855.7 109.6 888.7 123.2 916.7 144.6C924.1 150.4 930.1 162.4 929.5 170.3C939.6 170.3 948.9 175 955.2 183.1C976.6 211.1 990.2 244.1 994.9 279.1C996.1 288.4 993 299.6 986 305.9C992.9 312.2 996.1 323.4 994.9 332.7Z" fill="#F1B38B"/>
</svg>
