<svg xmlns="http://www.w3.org/2000/svg" viewBox="5.123 110.891 492.313 194.695"><path d="M34.024 200.69c-16.16 0-22.287 11.83-22.287 22.603 0 9.506 6.02 18.379 16.689 18.379 6.232 0 11.936-3.697 11.936-10.774h.317c0 8.556-6.338 12.57-13.52 12.57-12.148 0-19.647-9.824-19.647-20.175 0-11.408 7.288-23.449 27.04-23.449 8.239 0 15.738 3.38 19.858 3.38v.317c-3.38 0-2.957 2.113-1.162 5.387l13.31 24.082 13.308-24.082c1.584-2.852.845-5.387-2.535-5.387v-.317h12.252v.317c-4.225 0-6.443 1.373-8.661 5.387l-13.837 24.928v28.836c0 2.852.634 5.386 4.014 5.386v.317H58.741v-.317c3.38 0 4.119-2.534 4.119-5.386v-28.625l-17.534-32.005a48 48 0 0 0-11.302-1.373M110.076 236.074c-5.809 9.084-24.61 8.345-24.61 22.076 0 6.97 5.386 9.823 11.09 9.928 5.915.106 12.253-3.591 13.52-10.14zm4.225 26.723c0 2.852.634 5.281 4.014 5.281v.317h-8.239v-7.71c-2.112 5.598-8.239 8.344-14.259 8.344-7.288 0-14.577-3.908-14.577-10.985 0-14.999 23.766-13.098 28.836-23.555 0-8.45-6.02-13.309-11.936-13.309-5.598 0-12.886 3.698-13.836 16.9h-.317l.845-11.724c4.542-4.12 9.295-6.02 14.26-6.126 8.027-.106 15.21 4.648 15.21 15.738zM129.407 262.691c0 2.852.528 5.388 3.908 5.388v.317h-12.253v-.317c3.38 0 4.12-2.536 4.12-5.388V230.16c0-2.852-.634-5.387-4.014-5.387v-.317c2.747 0 6.76-.845 8.239-4.225v21.759c4.436-15.95 10.668-21.759 15.95-21.759 5.175 0 9.084 3.696 9.084 16.16v26.301c0 2.852.633 5.388 4.013 5.388v.317h-12.252v-.317c3.38 0 4.014-2.536 4.014-5.388v-28.835c0-8.45-2.958-10.88-6.972-10.88-4.437 0-9.19 6.126-13.837 21.76zM192.467 232.8c0-7.078-4.33-11.62-10.774-11.62-10.88 0-16.16 11.091-16.16 22.288 0 4.119.74 7.816 2.217 11.407 5.704-9.295 24.717-8.239 24.717-22.076m-24.294 23.132c2.64 5.81 7.5 9.93 14.26 9.93 3.802 0 11.302-1.69 14.365-10.563h.317c-2.324 11.09-10.246 13.731-15.739 13.731-13.309 0-20.174-12.358-20.069-24.61.106-12.148 7.289-24.19 20.28-24.19 9.824 0 15.105 5.916 15.105 12.57 0 14.682-22.92 13.204-28.519 23.132M208.735 262.691c0 2.852.528 5.388 3.908 5.388v.317H200.39v-.317c3.38 0 4.12-2.536 4.12-5.388v-53.763c0-2.852-.634-5.387-4.014-5.387v-.317c2.747 0 6.76-2.64 8.24-6.02zM233.874 262.48l10.034-36.018c.845-2.852-.95-5.387-4.33-5.387v-.317h12.358v.317c-3.38 0-6.232 2.535-7.078 5.387l-14.47 51.863c-3.169 11.302-8.344 14.26-13.309 14.26-3.38 0-3.274-4.332-.317-4.332h1.056l2.113.317h1.056c4.542 0 6.865-4.859 8.45-10.457l2.535-9.084h-.528l-11.83-42.567c-.845-2.852-2.113-5.387-5.493-5.387v-.317h12.359v.317c-3.38 0-3.486 2.535-2.64 5.387zM312.568 268.079c7.71 0 12.357-3.698 13.097-7.606v-13.308c0-2.852-.74-5.282-4.12-5.282v-.422h12.359v.422c-3.38 0-4.12 2.43-4.12 5.282l.106 21.23h-.317l-1.478-3.168c-3.592 2.007-10.14 3.802-16.795 3.802-44.257 0-44.574-66.544-.845-66.544 11.725 0 22.181 6.337 22.181 18.59 0 8.555-6.231 16.794-18.273 16.794v-.317c9.718 0 15-8.133 15-16.372 0-11.83-8.768-17.85-18.908-17.85-37.92 0-38.343 64.749 2.113 64.749M362.32 236.074c-5.81 9.084-24.61 8.345-24.61 22.076 0 6.97 5.387 9.823 11.09 9.928 5.915.106 12.252-3.591 13.52-10.14zm4.225 26.723c0 2.852.634 5.281 4.014 5.281v.317h-8.24v-7.71c-2.112 5.598-8.238 8.344-14.258 8.344-7.289 0-14.577-3.908-14.577-10.985 0-14.999 23.766-13.098 28.836-23.555 0-8.45-6.02-13.309-11.936-13.309-5.597 0-12.886 3.698-13.836 16.9h-.318l.846-11.724c4.541-4.12 9.294-6.02 14.26-6.126 8.026-.106 15.21 4.648 15.21 15.738zM381.65 241.989c4.436-15.95 10.668-21.76 15.95-21.76 6.654 0 6.865 7.395 1.795 7.395-4.224 0-2.323-4.33-4.858-4.33-6.76.105-11.196 16.265-12.886 21.441v17.957c0 2.852.527 5.386 3.907 5.386v.317h-12.253v-.317c3.38 0 4.12-2.534 4.12-5.386v-32.639c0-2.852-.633-5.281-4.013-5.281v-.317c2.745 0 6.76-.845 8.239-4.225zM438.268 255.298c-2.852 10.984-10.458 13.731-15.95 13.731-12.359 0-20.07-11.935-20.07-23.977 0-12.358 6.339-24.822 19.437-24.822 4.963 0 10.14 2.007 14.26 6.126l.739 11.725h-.317c-.95-13.098-7.922-16.795-13.732-16.795-10.88 0-16.16 11.196-16.16 22.498 0 11.091 6.654 22.076 16.9 22.076 3.802 0 11.512-1.69 14.575-10.562zM449.677 207.766h3.803v.423l-6.443 8.555-1.162-.211v-.211zm-.316 54.925c0 2.853.527 5.388 3.908 5.388v.316h-12.253v-.316c3.38 0 4.12-2.535 4.12-5.388V230.16c0-2.853-.634-5.387-4.014-5.387v-.317c2.746 0 6.76-.845 8.24-4.225zM484.852 236.074c-5.81 9.084-24.611 8.345-24.611 22.076 0 6.97 5.387 9.823 11.09 9.928 5.916.106 12.253-3.591 13.52-10.14zm4.225 26.723c0 2.852.633 5.281 4.013 5.281v.317h-8.238v-7.71c-2.113 5.598-8.24 8.344-14.26 8.344-7.288 0-14.577-3.908-14.577-10.985 0-14.999 23.766-13.098 28.836-23.555 0-8.45-6.02-13.309-11.936-13.309-5.597 0-12.885 3.698-13.836 16.9h-.317l.845-11.724c4.542-4.12 9.295-6.02 14.26-6.126 8.027-.106 15.21 4.648 15.21 15.738zM286.808 303.321c0 .666 0 1.333.08 1.999h-.852c-.347-.72-.746-1.333-1.226-1.999l-11.22-15.855c-.372-.507-.719-1.013-1.118-1.52v17.375c0 .666 0 1.333.079 1.999h-.773c.08-.666.08-1.333.08-1.999v-15.855c0-.666 0-1.333-.08-2h1.173c.4.667.853 1.334 1.332 2l11.912 16.815v-16.815c0-.666 0-1.333-.08-2h.772c-.08.667-.08 1.334-.08 2zM313.596 285.467c-.054.56-.08 1.093-.08 2.025v10.82c0 4.423-2.878 7.168-7.515 7.168s-7.568-2.772-7.568-7.169v-10.819c0-.932-.027-1.465-.08-2.025h.773c-.053.56-.08 1.093-.08 2.025v10.793c0 4.103 2.639 6.635 6.956 6.635 4.316 0 6.901-2.505 6.901-6.635v-10.793c0-.932-.026-1.465-.08-2.025zM336.28 285.467c.666 0 1.332 0 1.998-.08v.72c-.666-.08-1.332-.08-1.998-.08h-5.436v17.294c0 .667 0 1.333.08 2h-.773c.08-.667.08-1.333.08-2v-17.294h-5.436c-.667 0-1.333 0-2 .08v-.72c.667.08 1.333.08 2 .08zM352.967 295.327c3.864 0 5.916-1.679 5.916-4.85 0-2.932-1.919-4.45-5.49-4.45h-5.222v9.3zm6.422 7.914c.427.692.88 1.413 1.412 2.08h-1.092c-.266-.747-.64-1.413-1.066-2.08l-4.69-7.382h-5.782v7.462c0 .667 0 1.333.079 2h-.746c.053-.667.053-1.333.053-2v-15.935c0-1.253-.026-1.572-.08-1.998.587.053 1.12.079 2.052.079h3.97c3.864 0 5.996 1.759 5.996 4.983 0 2.852-1.519 4.743-4.903 5.276zM371.44 285.467c-.08.666-.08 1.333-.08 1.999v15.855c0 .667 0 1.333.08 1.999h-.773c.08-.666.08-1.332.08-1.999v-15.855c0-.666 0-1.333-.08-2zM390.39 284.507l-.267-.373 5.49-2.664.399.533zm8.9 10.793c0-5.942-3.092-9.566-8.288-9.566-5.17 0-8.287 3.677-8.287 9.752 0 5.97 3.09 9.54 8.287 9.54 5.17 0 8.288-3.65 8.288-9.726m.613 0c0 6.316-3.438 10.286-8.9 10.286-5.517 0-8.901-3.864-8.901-10.1 0-6.314 3.437-10.313 8.9-10.313 5.516 0 8.9 3.865 8.9 10.127M420.668 304.76c.666 0 1.332 0 1.998-.08v.72c-.666-.08-1.332-.08-1.998-.08h-8.314c-.666 0-1.386 0-2.052.08.08-.666.08-1.332.08-1.999V287.52c0-.666 0-1.332-.08-1.998h.773c-.08.666-.08 1.332-.08 1.998v17.24zM446.654 295.3c0-5.943-3.09-9.566-8.287-9.566-5.17 0-8.287 3.677-8.287 9.752 0 5.97 3.09 9.54 8.287 9.54 5.17 0 8.287-3.65 8.287-9.726m.613 0c0 6.316-3.437 10.286-8.9 10.286-5.516 0-8.9-3.864-8.9-10.1 0-6.314 3.437-10.313 8.9-10.313 5.516 0 8.9 3.865 8.9 10.127M472.883 302.095c0 .666.027 1.36.08 1.998-2.77 1.067-4.93 1.493-7.381 1.493-5.623 0-8.98-3.864-8.98-10.313 0-5.995 3.517-10.073 8.713-10.073 2.185 0 3.945.48 5.356 1.52.774.56 1.466 1.252 2.106 2.105l-.614.48a7.3 7.3 0 0 0-1.838-2.079c-1.306-1.013-2.958-1.465-5.036-1.465-4.85 0-8.075 3.757-8.075 9.512 0 6.183 3.038 9.754 8.368 9.754 2.052 0 4.396-.453 6.688-1.28v-7.035h-4.397c-.666 0-1.199.027-2.025.08v-.72c.826.055 1.36.08 2.025.08h3.065c.666 0 1.2-.025 2.025-.08-.053.88-.08 1.387-.08 2.026zM492.955 296.846l-4.024-10.74-4.05 10.74zm3.09 6.475c.24.666.534 1.333.854 1.999h-.853c-.133-.666-.4-1.333-.64-1.999l-2.21-5.916h-8.528l-2.212 5.916c-.24.666-.48 1.333-.64 1.999h-.852c.32-.666.612-1.333.853-1.999l5.942-15.855c.24-.666.533-1.333.693-2h.96c.158.667.452 1.334.692 2zM497.435 277.065H256.556v-.79h240.88z" style="fill:#8c1133;fill-opacity:1;fill-rule:nonzero;stroke:none;stroke-width:.494035"/><path d="M286.076 149.804c0 21.491-17.422 38.913-38.913 38.913s-38.914-17.422-38.914-38.913 17.423-38.913 38.914-38.913 38.913 17.422 38.913 38.913" style="fill:#d83755;fill-opacity:1;fill-rule:nonzero;stroke:none;stroke-width:.494035"/><path d="M275.99 142.187c-.397-6.39-3.314-11.307-9.365-14.114l.012.022c-2.659-1.243-5.518-1.601-8.513-1.057-3.855.7-6.807 2.78-9.155 5.753-.678.857-1.268 1.772-1.854 2.777-.242-.394-.428-.703-.62-1.008-.965-1.525-2.087-2.924-3.45-4.138-4.418-3.93-10.314-4.68-15.34-2.349-6.052 2.807-8.968 7.724-9.365 14.114-.15 2.406.344 4.73 1.265 6.97.156.38.307.555.78.552 3.824-.026 7.647-.023 11.47-.002.446.002.609-.15.735-.53.67-2.017 1.364-4.026 2.055-6.036.716-2.083 1.437-4.165 2.2-6.375l7.064 17.115c.652-1.271 1.278-2.445 1.856-3.64.202-.417.444-.56.93-.559 8.996.017 17.992.012 26.988.012.086 0 .173-.006.259-.005l.011.02q.094 0 .172-.01a.34.34 0 0 0 .26-.075c.162-.086.256-.239.35-.467.92-2.241 1.414-4.565 1.264-6.97" style="fill:#ebebeb;fill-opacity:1;fill-rule:nonzero;stroke:none;stroke-width:.494035"/><path d="M220.104 152.143c.26-.16.481-.09.692-.091 4.217-.005 8.433-.01 12.65.007.43.002.612-.133.747-.613.668-2.362 1.38-4.709 2.076-7.06.056-.187.069-.398.239-.554l6.771 19.18c.224-.134.257-.371.34-.56q2.187-4.933 4.353-9.875c.156-.355.314-.542.709-.541 8.352.015 16.705.012 25.058.012h.414c-.586.933-1.083 1.79-1.638 2.597-2.649 3.857-5.72 7.26-8.956 10.468-5.336 5.291-10.722 10.517-16.085 15.774-.221.217-.363.387-.678.073-5.841-5.807-11.848-11.396-17.593-17.328-2.676-2.763-5.226-5.665-7.456-8.907-.571-.831-1.09-1.71-1.643-2.583" style="fill:#ebebeb;fill-opacity:1;fill-rule:nonzero;stroke:none;stroke-width:.494035"/><path d="M216.044 149.804c0 21.491-17.422 38.913-38.913 38.913s-38.914-17.422-38.914-38.913 17.423-38.913 38.914-38.913 38.913 17.422 38.913 38.913" style="fill:#1d7d01;fill-opacity:1;fill-rule:nonzero;stroke:none;stroke-width:.494035"/><path d="M148.598 149.804c0 21.491-17.422 38.913-38.913 38.913-21.492 0-38.914-17.422-38.914-38.913s17.422-38.913 38.914-38.913c21.49 0 38.913 17.422 38.913 38.913" style="fill:#8c5b4a;fill-opacity:1;fill-rule:nonzero;stroke:none;stroke-width:.494035"/><path d="m112.961 148.017-3.652-1.786a1.09 1.09 0 0 1-.498-1.45l.951-1.946c.262-.536.915-.76 1.45-.498l3.654 1.786c.535.262.76.915.497 1.45l-.951 1.946c-.262.536-.915.76-1.45.498M117.609 138.425l-3.652-1.786a1.09 1.09 0 0 1-.498-1.45l.951-1.946c.262-.536.915-.76 1.45-.498l3.654 1.786c.535.262.76.915.497 1.45l-.951 1.946c-.262.536-.915.76-1.451.498M122.417 140.776l-2.044-1a1.09 1.09 0 0 1-.498-1.45l.952-1.946c.261-.535.915-.76 1.45-.498l2.045 1c.535.262.76.915.497 1.45l-.951 1.946c-.262.536-.915.76-1.45.498M111.178 135.28l-2.044-1a1.09 1.09 0 0 1-.498-1.45l.952-1.946c.262-.535.915-.76 1.45-.498l2.045 1c.535.262.76.915.497 1.45l-.95 1.946c-.263.536-.916.76-1.452.498M120.723 125.42l-1.24-.607a.636.636 0 0 1-.291-.847l.555-1.137a.635.635 0 0 1 .847-.29l1.242.606a.635.635 0 0 1 .29.848l-.555 1.136a.635.635 0 0 1-.848.291M123.604 126.829l-1.24-.607a.636.636 0 0 1-.292-.848l.556-1.136a.635.635 0 0 1 .847-.29l1.241.606a.635.635 0 0 1 .291.847l-.556 1.137a.635.635 0 0 1-.847.29M120.698 129.436l-1.488-.728a.78.78 0 0 1-.356-1.037l.68-1.39a.78.78 0 0 1 1.037-.357l1.488.728a.777.777 0 0 1 .355 1.037l-.68 1.39a.78.78 0 0 1-1.036.357M116.886 127.572l-1.488-.728a.78.78 0 0 1-.356-1.037l.68-1.39a.777.777 0 0 1 1.037-.356l1.488.727a.777.777 0 0 1 .356 1.037l-.68 1.391a.78.78 0 0 1-1.037.356M124.425 131.258l-1.488-.727a.777.777 0 0 1-.355-1.037l.68-1.39a.777.777 0 0 1 1.036-.357l1.488.728a.777.777 0 0 1 .356 1.037l-.68 1.39a.78.78 0 0 1-1.037.356M119.61 133.715l-3.11-1.521a.863.863 0 0 1-.396-1.152l.755-1.544a.863.863 0 0 1 1.152-.395l3.112 1.521a.863.863 0 0 1 .395 1.152l-.756 1.544a.864.864 0 0 1-1.151.395M114.235 131.086l-2.099-1.026a.863.863 0 0 1-.395-1.151l.755-1.545a.864.864 0 0 1 1.152-.395l2.099 1.026a.864.864 0 0 1 .395 1.152l-.755 1.544a.863.863 0 0 1-1.152.395M123.938 135.831l-2.099-1.026a.863.863 0 0 1-.395-1.152l.755-1.544a.864.864 0 0 1 1.152-.395l2.099 1.026a.863.863 0 0 1 .395 1.152l-.756 1.544a.863.863 0 0 1-1.151.395" style="fill:#ebebeb;fill-opacity:1;fill-rule:nonzero;stroke:none;stroke-width:.494035"/><path d="m117.609 138.425-3.652-1.786a1.09 1.09 0 0 1-.498-1.45l.951-1.946c.262-.536.915-.76 1.45-.498l3.654 1.786c.535.262.76.915.497 1.45l-.951 1.946c-.262.536-.915.76-1.451.498M122.417 140.776l-2.044-1a1.09 1.09 0 0 1-.498-1.45l.952-1.946c.261-.535.915-.76 1.45-.498l2.045 1c.535.262.76.915.497 1.45l-.951 1.946c-.262.536-.915.76-1.45.498M111.178 135.28l-2.044-1a1.09 1.09 0 0 1-.498-1.45l.952-1.946c.262-.535.915-.76 1.45-.498l2.045 1c.535.262.76.915.497 1.45l-.95 1.946c-.263.536-.916.76-1.452.498M115.248 143.253l-3.652-1.786a1.09 1.09 0 0 1-.498-1.45l.951-1.946c.262-.536.915-.76 1.45-.498l3.654 1.786c.535.262.76.915.497 1.45l-.951 1.946c-.262.536-.915.76-1.451.498M120.056 145.604l-2.044-.999a1.09 1.09 0 0 1-.498-1.45l.952-1.946c.261-.536.915-.76 1.45-.498l2.044.999c.536.262.76.915.498 1.451l-.951 1.945c-.262.537-.915.76-1.451.498M108.817 140.109l-2.044-1a1.09 1.09 0 0 1-.498-1.45l.952-1.946c.262-.536.915-.76 1.45-.498l2.045 1c.535.261.76.915.497 1.45l-.951 1.946c-.262.536-.915.76-1.45.498M110.64 152.764l-3.653-1.786a1.09 1.09 0 0 1-.498-1.45l.952-1.946c.262-.536.915-.76 1.45-.498l3.653 1.786c.536.262.76.915.498 1.45l-.951 1.946c-.263.536-.915.76-1.451.498M117.769 150.368l-2.044-.999a1.09 1.09 0 0 1-.498-1.45l.952-1.946c.262-.536.915-.76 1.45-.498l2.045.999c.535.262.76.915.497 1.451l-.951 1.945c-.262.536-.915.76-1.451.498M106.53 144.873l-2.044-1a1.09 1.09 0 0 1-.498-1.45l.952-1.946c.262-.536.915-.76 1.45-.498l2.045 1c.535.261.76.914.497 1.45l-.95 1.946c-.263.536-.916.76-1.452.498M127.92 145.895c-6.574 3.857-23.86 15.14-29.519 30.091a.823.823 0 0 0 .555 1.09c2.8.722 12.698.38 30.094-30.058.418-.733-.402-1.55-1.13-1.123M101.732 133.084c.986 7.557 2.676 28.131-5.663 41.77a.823.823 0 0 1-1.202.23c-2.287-1.77-8.086-9.797 5.285-42.204.323-.781 1.471-.634 1.58.204M103.677 149.36l.405.198a1.23 1.23 0 0 0 1.64-.562l.827-1.693a1.23 1.23 0 0 0-.562-1.64l-1.791-.875a1.2 1.2 0 0 0-.415-.117c0 1.483-.028 3.055-.104 4.689M108.318 157.512l-3.652-1.786a1.09 1.09 0 0 1-.498-1.451l.951-1.946c.262-.536.915-.76 1.45-.498l3.654 1.786c.535.262.76.915.497 1.451l-.95 1.946c-.263.536-.916.76-1.452.498M103.4 153.742l.828-1.692a1.23 1.23 0 0 0-.563-1.64l-.041-.02a89 89 0 0 1-.265 3.428zM113.53 154.178l.386.188a99 99 0 0 1 3.642-2.966 1.2 1.2 0 0 0-.332-.24l-1.791-.877a1.23 1.23 0 0 0-1.64.563l-.828 1.693a1.23 1.23 0 0 0 .563 1.639" style="fill:#ebebeb;fill-opacity:1;fill-rule:nonzero;stroke:none;stroke-width:.494035"/><path d="m113.135 155.041-.022-.01a1.23 1.23 0 0 0-1.64.563l-.827 1.692c0 .01-.011.02-.013.03a87 87 0 0 1 2.502-2.274M107.775 158.303l-3.4-1.663a1.23 1.23 0 0 0-1.369.203 71 71 0 0 1-.596 3.658q.03.017.061.033l3.4 1.663q.016.006.029.012a70 70 0 0 1 2.56-2.757 1.23 1.23 0 0 0-.684-1.15M105.255 162.953l-3.037-1.485a58 58 0 0 1-1.056 4.309l1.34.655a58 58 0 0 1 2.753-3.48" style="fill:#ebebeb;fill-opacity:1;fill-rule:nonzero;stroke:none;stroke-width:.494035"/><path d="M82.95 149.804c0 21.491-17.423 38.913-38.914 38.913S5.123 171.295 5.123 149.804s17.422-38.913 38.913-38.913 38.914 17.422 38.914 38.913" style="fill:#f29f05;fill-opacity:1;fill-rule:nonzero;stroke:none;stroke-width:.494035"/><path d="M29.528 146.655c.347-1.73 1.16-2.817 1.212-2.884a1.06 1.06 0 0 1 1.41-.22c.45.303.538.877.231 1.312-.503.717-1.162 2.654-.855 4.357s.829 3.081 3.677 3.59c1.807.323 1.986 1.703 2.116 2.71.143 1.106.322 2.483 2.044 3.992.678.595 1.547 1.04 2.467 1.508.456.233.932.477 1.404.753.709-1.497 1.294-4.06 1.245-5.59a8.94 8.94 0 0 0-1.908-5.23l-.256-.33.081-.4a9.6 9.6 0 0 0 .191-2.144 4.2 4.2 0 0 1-1.279.19c-1.936-.018-3.425-.76-4.433-1.956-1.74-2.063-1.34-4.359-1.257-5.56.081-1.201.156-2.157.302-3.514.227-2.102.507-4.72.295-5.649-.654-2.862-2.138-2.815-2.697-2.798-.558.018-1.024-.39-1.04-.91s.421-.956.98-.974c1.392-.043 3.859.454 4.732 4.282.278 1.218.005 3.766-.26 6.23-.146 1.353-.268 2.333-.294 3.425s-.204 3.1.833 4.306c.651.756 1.614 1.166 2.961 1.236.489.03 1.561-.45 2.134-1.423a5.44 5.44 0 0 0 .48-2.401c-.038-1.22-.486-2.377-1.292-3.347l-.494-.594.513-.582c.949-1.08 1.447-2.436 1.403-3.82a5.45 5.45 0 0 0-1.177-3.204l-.453-.577.478-.565a5.54 5.54 0 0 0 1.338-3.76c-.107-3.34-2.427-5.602-5.642-5.501-2.22.07-3.883.985-4.81 3.118-2.247-.592-4.876 1.348-5.463 3.276-.608 1.998-.237 4.39 2.307 7.416.377.449.779.852 1.196 1.198.416.345.453.94.081 1.33-.192.202-.456.31-.723.318a1.05 1.05 0 0 1-.702-.237c-.507-.42-.992-.904-1.443-1.44-1.819-2.164-2.469-4.6-2.696-6.25-3.842 2.61-4.337 7.414-2.587 10.054-2.244 3.357 1.245 7.464 5.65 7.259" style="fill:#ebebeb;fill-opacity:1;fill-rule:nonzero;stroke:none;stroke-width:.494035"/><path d="M40.855 162.674a10.5 10.5 0 0 1-2.877-1.785c-2.255-1.975-2.5-3.877-2.664-5.136-.132-1.026-.174-1.033-.498-1.091-1.642-.293-2.77-.82-3.558-1.492a7.7 7.7 0 0 1-2.815.643c-2.602.082-4.595-1.133-4.708-1.204-.463-.289-.587-.874-.276-1.307s.939-.55 1.399-.264c.11.068 2.542 1.522 5.212.567-.26-.549-.77-1.697-.735-3.046-4.243.115-8.168-2.377-8.337-6.548-5.483 8.006 1.05 15.508 8.501 17.63 2.005.572 3.451 2.567 3.47 4.647.004.364-.047.91-.269 1.521a11.6 11.6 0 0 1 2.654.843 9.4 9.4 0 0 1-.036-2.7c.082-.515.6-.87 1.147-.798.551.073.932.55.852 1.065-.005.024-.462 3.023.87 4.425.706.745 1.412 1.981 1.616 3.353.076.515-.31.993-.862 1.066q-.056.005-.11.008c-.508.017-.957-.327-1.029-.81-.597-4.02-4.747-4.578-6.214-4.724-.663.67-1.633 1.308-3.065 1.783a1 1 0 0 1-.305.055c-.428.013-.833-.23-.983-.626-.185-.49.091-1.03.618-1.204 2.01-.668 3.109-1.816 3.096-3.234-.01-1.258-.928-2.522-2.09-2.88-4.15-1.276-7.196-3.361-9.08-6.205-2.437 6.33 2.842 9.017 6.218 8.62.547-.056 1.058.302 1.125.818.067.518-.328.988-.882 1.052a10 10 0 0 1-.803.06 8.9 8.9 0 0 1-3.085-.442c-.794 3.497 2.805 9.327 9.38 6.93.824 4.583 7.623 6.702 11.543 2.348 3.856-4.285 1.18-10.433-2.42-11.938M45.713 133.682q.012.352.074.699c.784-1.034 1.654-1.9 2.225-2.359l.666-.527c2.126-1.675 3.192-2.515 3.007-5.33-.033-.502.376-.937.914-.97.55-.036 1.001.348 1.034.85.247 3.731-1.409 5.035-3.698 6.84q-.317.25-.654.518c-.857.688-1.945 1.929-2.642 3.12l.012.022-.203.411a5.24 5.24 0 0 0-.55 2.504c.025.816.242 1.605.642 2.345l.196.364-.16.38c-.423 1-.62 2.05-.585 3.125.027.862.222 1.708.542 2.51.709-.898 1.644-1.669 2.777-2.26 1.608-.84 3.48-1.233 4.85-1.055 1.987-2.216 4.696-3.49 7.696-3.606q.039 0 .076-.003c1.727-.054 5.121.434 6.626 2.45.654-3.642-.654-6.633-4.47-7.407.74-2.997-1.166-5.789-2.94-6.744-.726 2.088-1.896 3.234-3.15 4.139.457.615 1.547 2.262 1.57 4.02.007.498-.416.91-.946.926h-.018c-.539.009-.982-.393-.989-.896-.015-1.238-.862-2.517-1.206-2.986-1.581 1.037-3.046 2.152-3.979 4.964-.127.382-.497.63-.903.643a1 1 0 0 1-.318-.04c-.514-.146-.803-.655-.643-1.137 1.208-3.641 3.286-4.989 5.12-6.178 1.558-1.01 2.91-1.892 3.658-4.17l.15-.757c.092-.457.13-.914.116-1.36-.111-3.507-3.26-6.264-7.017-6.145-3.756.118-6.723 3.068-6.612 6.574.03.888.253 1.747.668 2.553l.231.447-.279.424a5.3 5.3 0 0 0-.888 3.102" style="fill:#ebebeb;fill-opacity:1;fill-rule:nonzero;stroke:none;stroke-width:.494035"/><path d="M69.14 156.19c-.801.96-1.66 1.743-1.808 1.874a1 1 0 0 1-.645.256 1 1 0 0 1-.734-.277.87.87 0 0 1 .03-1.288c.415-.374 1.371-1.313 2.03-2.206l-.016-.018.35-.542a7.14 7.14 0 0 0 1.16-4.114c-.061-1.946-.922-3.76-2.419-5.121-.067-.064-.13-.127-.2-.186l-.072-.063c-1.198-.953-2.995-1.477-4.887-1.42-1.512.057-4.379.567-6.61 3.347l-.44.548-.685-.24c-.612-.212-2.238-.114-3.935.773-1.207.629-2.621 1.846-3.179 3.904-.877 3.239 1.631 5.124 2.519 5.75.431.304.634.799.37 1.237a.99.99 0 0 1-.822.468 1 1 0 0 1-.5-.112c-.745-.382-1.76-1.172-2.543-2.319a6.4 6.4 0 0 0-.333 2.208c.047 1.447.572 2.822 1.522 3.975l.28.342c.816.902 1.966 1.785 2.86 2.467.424.326.805.617 1.095.864 2.723 2.315 2.191 5.139 1.53 6.31a1 1 0 0 1-.835.488c-.165.005-.33-.03-.486-.105-.474-.233-.656-.78-.408-1.223.122-.227 1.108-2.228-1.118-4.12-.27-.23-.624-.5-1.018-.801-.68-.52-1.494-1.147-2.247-1.835a4.6 4.6 0 0 0-.052.797c.022.7.204 1.376.54 2.008l.228.43-.252.42c-.536.89-.801 1.897-.769 2.904.098 3.089 2.87 5.515 6.18 5.41 2.315-.073 4.344-1.35 5.297-3.335l.168-.352.388-.133a5.23 5.23 0 0 0 2.618-1.98 5.6 5.6 0 0 1-2.332-.776c-1.323-.804-2.17-2.107-2.324-3.578-.14-1.349.279-2.858.735-4.033a9 9 0 0 1-2.477.438c-.835.026-1.582-.076-2.12-.28-.499-.187-.738-.718-.535-1.185.204-.467.773-.691 1.273-.504 1.09.41 4.532.042 5.715-2.034 1.21-2.148 1.531-3.266 1.078-4.345-.436-1.04-1.282-1.413-1.915-1.544-1.16-.238-2.505.157-3.5 1.037a1.025 1.025 0 0 1-1.38-.032.87.87 0 0 1 .04-1.288c1.223-1.078 2.832-1.648 4.373-1.592.46-1.695.05-3.329.046-3.347-.128-.488.194-.981.718-1.103.517-.117 1.051.178 1.179.666.023.093.522 2.078-.045 4.204a4.4 4.4 0 0 1 2.302 2.328c.94 2.24-.186 4.287-2.1 7.44-.007.012-1.66 2.904-1.443 4.99.094.918.612 1.75 1.449 2.233 5.377 3.097 11.758-5.58 9.11-12.685" style="fill:#ebebeb;fill-opacity:1;fill-rule:nonzero;stroke:none;stroke-width:.494035"/><path d="M171.07 146.426c-4.278-7.552-12.55-12.759-18.517-14.364 20.508 9.012 8.926 29.552 10.323 45.506 3.284 1.985 5.668 5.25 7.36 9.225-6.19-21.76 5.085-56.866 34.647-42.844-5.576 18.178-17.617 16.974-31.34 14.557 11.453 6.92 33.299 6.849 36.174-16.908-14.548-9.383-29.684-6.08-38.646 4.828" style="fill:#ebebeb;fill-opacity:1;fill-rule:evenodd;stroke:none;stroke-width:.494035"/><path d="M172.831 117.046c-12.978-.19-12.978 20.195.001 20.004 12.977.19 12.977-20.195 0-20.004" style="fill:#ebebeb;fill-opacity:1;fill-rule:evenodd;stroke:none;stroke-width:.494035"/></svg>